<?xml version="1.0" standalone="no"?>
<!DOCTYPE svg PUBLIC "-//W3C//DTD SVG 20010904//EN"
 "http://www.w3.org/TR/2001/REC-SVG-20010904/DTD/svg10.dtd">
<svg version="1.0" xmlns="http://www.w3.org/2000/svg"
 width="310.000000pt" height="310.000000pt" viewBox="0 0 310.000000 310.000000"
 preserveAspectRatio="xMidYMid meet">
<metadata>
Created by potrace 1.14, written by Peter Selinger 2001-2017
</metadata>
<g transform="translate(0.000000,310.000000) scale(0.100000,-0.100000)"
fill="#000000" stroke="none">
<path d="M1180 2862 c0 -4 6 -17 14 -28 24 -34 31 -110 31 -314 l-1 -195 -78
-3 c-111 -4 -175 18 -243 82 -29 28 -53 57 -53 63 0 7 -4 13 -10 13 -5 0 -10
-21 -11 -47 -2 -152 0 -285 4 -289 2 -2 16 13 30 35 31 46 77 84 133 107 45
20 213 32 223 16 3 -6 6 -149 5 -319 l0 -308 -270 0 -269 0 -66 31 c-41 19
-86 52 -119 85 -29 30 -50 49 -46 43 5 -10 9 -31 20 -114 6 -40 19 -60 39 -61
121 -3 930 0 933 4 3 2 -5 22 -18 43 l-23 39 -2 479 c-2 339 -6 489 -14 515
-18 53 -48 89 -94 111 -41 20 -115 28 -115 12z"/>
<path d="M1784 2856 c-45 -20 -91 -74 -103 -120 -6 -24 -9 -173 -8 -373 1
-216 -1 -333 -8 -333 -7 0 -7 -3 0 -8 6 -4 10 -38 10 -77 0 -38 -4 -73 -10
-77 -7 -5 -7 -8 0 -8 6 0 9 -23 7 -55 -2 -30 -8 -55 -14 -55 -5 0 -8 -6 -5
-12 2 -7 -4 -28 -14 -45 l-19 -33 28 -1 c207 -4 926 1 933 8 8 8 16 42 25 103
2 19 7 44 10 55 3 13 -10 4 -38 -26 -24 -25 -61 -58 -84 -72 -79 -49 -120 -55
-392 -55 -139 -1 -252 2 -253 6 -1 13 -1 577 0 605 l1 28 85 -2 c131 -3 208
-40 276 -133 16 -21 29 -35 30 -30 0 5 2 19 3 31 2 12 -2 19 -7 16 -6 -4 -7
-1 -2 7 10 17 13 280 3 280 -4 0 -13 -10 -19 -22 -12 -22 -31 -42 -80 -82 -42
-35 -110 -53 -201 -55 l-88 -2 -1 28 c-5 142 -2 368 4 408 5 28 17 65 27 83
l19 32 -42 0 c-23 -1 -56 -7 -73 -14z"/>
<path d="M483 1461 c1 -20 -12 -88 -23 -123 -14 -44 3 -41 43 7 35 42 128 97
187 111 47 11 521 11 527 0 9 -13 10 -605 2 -618 -4 -5 -45 -10 -92 -9 -129 1
-219 49 -279 146 l-18 30 0 -47 c-1 -74 -1 -182 0 -250 1 -63 1 -63 18 -38 40
59 102 108 162 129 49 18 207 24 212 8 6 -20 1 -420 -7 -452 -3 -16 -15 -45
-25 -63 l-20 -33 43 4 c63 5 147 48 147 76 0 6 4 11 9 11 26 0 32 100 34 560
2 471 2 475 25 519 12 25 22 46 22 47 0 1 -218 2 -484 1 -438 0 -483 -1 -483
-16z"/>
<path d="M1627 1464 c3 -8 13 -29 22 -48 20 -38 22 -66 24 -419 1 -159 -2
-247 -8 -247 -7 0 -7 -3 0 -8 6 -4 10 -38 10 -77 0 -38 -4 -73 -10 -77 -7 -5
-7 -8 0 -8 6 0 10 -34 9 -84 -2 -147 54 -218 185 -233 l44 -5 -15 24 c-39 61
-41 85 -41 642 l-1 541 240 0 c218 1 292 -4 334 -22 8 -3 17 -7 20 -7 24 -4
106 -64 131 -96 18 -22 35 -37 39 -35 10 6 -20 159 -32 166 -5 3 -223 6 -483
6 -393 0 -472 -2 -468 -13z"/>
<path d="M2202 944 c-37 -49 -117 -100 -174 -109 -43 -8 -52 -25 -12 -25 42 0
134 -51 175 -99 21 -24 39 -48 39 -52 0 -5 3 -9 8 -9 7 0 9 326 2 334 -3 2
-20 -16 -38 -40z"/>
<path d="M1864 823 c10 -10 46 -11 46 -1 0 4 -12 8 -27 8 -14 0 -23 -3 -19 -7z"/>
<path d="M1922 825 c8 -8 58 -13 58 -6 0 4 -14 8 -31 9 -17 0 -29 -1 -27 -3z"/>
</g>
</svg>
